<?xml version="1.0" standalone="no"?>
<!DOCTYPE svg PUBLIC "-//W3C//DTD SVG 20010904//EN"
 "http://www.w3.org/TR/2001/REC-SVG-20010904/DTD/svg10.dtd">
<svg version="1.0" xmlns="http://www.w3.org/2000/svg"
 width="700.000000pt" height="700.000000pt" viewBox="0 0 700.000000 700.000000"
 preserveAspectRatio="xMidYMid meet">
<metadata>
Created by potrace 1.14, written by Peter Selinger 2001-2017
</metadata>
<g transform="translate(0.000000,700.000000) scale(0.100000,-0.100000)"
fill="#000000" stroke="none">
<path d="M330 3480 l0 -1810 3170 0 3170 0 0 1810 0 1810 -3170 0 -3170 0 0
-1810z m5108 910 c-1 -5 -172 -455 -378 -1000 l-375 -990 -137 0 c-76 0 -138
3 -138 7 0 4 169 454 377 1000 l376 993 139 0 c86 0 138 -4 136 -10z m-1297
-59 c39 -15 71 -37 102 -70 64 -68 81 -129 82 -296 l0 -130 -177 -3 -178 -2 0
115 c0 151 -3 155 -133 155 -68 0 -99 -4 -115 -16 l-22 -15 0 -603 c0 -504 2
-605 14 -622 13 -17 27 -19 121 -19 139 0 135 -6 135 182 l0 143 178 -2 177
-3 0 -165 c-1 -130 -5 -176 -18 -216 -37 -108 -113 -171 -231 -193 -77 -14
-425 -14 -502 0 -118 22 -193 84 -231 193 -17 47 -18 104 -18 701 l0 650 23
56 c41 103 126 165 247 180 33 4 157 6 275 5 191 -3 221 -6 271 -25z m-1851
-366 l0 -365 145 0 145 0 0 365 0 365 190 0 190 0 0 -870 0 -870 -190 0 -190
0 0 340 0 340 -145 0 -145 0 0 -340 0 -340 -190 0 -190 0 0 870 0 870 190 0
190 0 0 -365z m-690 -89 l0 -154 -300 -154 c-165 -84 -300 -155 -300 -159 0
-3 135 -74 300 -158 l300 -152 0 -155 0 -154 -98 52 c-54 29 -257 139 -450
243 l-352 190 2 138 3 139 440 239 c242 131 443 238 448 239 4 0 7 -69 7 -154z
m4385 -84 l440 -238 3 -140 3 -140 -373 -201 c-205 -111 -408 -220 -450 -243
l-78 -42 0 156 0 155 306 154 306 154 -43 25 c-24 14 -162 85 -306 157 l-263
131 0 155 c0 85 3 155 8 155 4 0 205 -107 447 -238z"/>
</g>
</svg>
